<?xml version="1.0" encoding="UTF-8"?>
<svg xmlns="http://www.w3.org/2000/svg" viewBox="0 0 64 64" role="img" aria-label="Padelmaestro">
  <defs>
    <linearGradient id="padel-icon-face" x1="0%" y1="0%" x2="100%" y2="100%">
      <stop offset="0%" stop-color="#06b6d4"/>
      <stop offset="100%" stop-color="#22d3ee"/>
    </linearGradient>
  </defs>
  <rect width="64" height="64" rx="12" fill="#0b1220"/>
  <g transform="rotate(-22 32 32)">
    <path d="M32 6 C 22 6, 14 14, 14 23 L 14 33 C 14 39, 18 43, 24 43 L 40 43 C 46 43, 50 39, 50 33 L 50 23 C 50 14, 42 6, 32 6 Z" fill="url(#padel-icon-face)"/>
    <circle cx="23" cy="17" r="1.6" fill="#0b1220"/>
    <circle cx="32" cy="17" r="1.6" fill="#0b1220"/>
    <circle cx="41" cy="17" r="1.6" fill="#0b1220"/>
    <circle cx="23" cy="25" r="1.6" fill="#0b1220"/>
    <circle cx="32" cy="25" r="1.6" fill="#0b1220"/>
    <circle cx="41" cy="25" r="1.6" fill="#0b1220"/>
    <circle cx="23" cy="33" r="1.6" fill="#0b1220"/>
    <circle cx="32" cy="33" r="1.6" fill="#0b1220"/>
    <circle cx="41" cy="33" r="1.6" fill="#0b1220"/>
    <circle cx="27" cy="40" r="1.6" fill="#0b1220"/>
    <circle cx="37" cy="40" r="1.6" fill="#0b1220"/>
    <rect x="30" y="43" width="4" height="4" fill="url(#padel-icon-face)"/>
    <rect x="28.5" y="47" width="7" height="13" rx="2.5" fill="#0b1220" stroke="url(#padel-icon-face)" stroke-width="1.5"/>
  </g>
  <circle cx="52" cy="50" r="5.5" fill="#fde047"/>
  <path d="M48 49 Q52 46.5 56 49" stroke="#a98d1c" stroke-width="0.6" fill="none" opacity="0.7"/>
</svg>
